<mxfile host="app.diagrams.net" agent="Mozilla/5.0 (Windows NT 10.0; Win64; x64) AppleWebKit/537.36 (KHTML, like Gecko) Chrome/128.0.0.0 Safari/537.36" version="24.7.17">
  <diagram name="PÃ¡gina-1" id="3JDY7Z330LEXzqXMB3Nb">
    <mxGraphModel dx="3447" dy="1540" grid="1" gridSize="10" guides="1" tooltips="1" connect="1" arrows="1" fold="1" page="1" pageScale="1" pageWidth="827" pageHeight="1169" math="0" shadow="0">
      <root>
        <mxCell id="0" />
        <mxCell id="1" parent="0" />
        <mxCell id="KwsbSVUGnA-76USdKB4o-1" style="edgeStyle=orthogonalEdgeStyle;rounded=0;orthogonalLoop=1;jettySize=auto;html=1;exitX=0.5;exitY=0;exitDx=0;exitDy=0;entryX=0.5;entryY=0;entryDx=0;entryDy=0;dashed=1;endArrow=block;endFill=0;endSize=20;" edge="1" parent="1" source="KwsbSVUGnA-76USdKB4o-3" target="KwsbSVUGnA-76USdKB4o-57">
          <mxGeometry relative="1" as="geometry" />
        </mxCell>
        <mxCell id="KwsbSVUGnA-76USdKB4o-2" style="edgeStyle=orthogonalEdgeStyle;rounded=0;orthogonalLoop=1;jettySize=auto;html=1;entryX=0;entryY=0.25;entryDx=0;entryDy=0;endArrow=blockThin;endFill=0;endSize=20;" edge="1" parent="1" source="KwsbSVUGnA-76USdKB4o-3" target="KwsbSVUGnA-76USdKB4o-67">
          <mxGeometry relative="1" as="geometry" />
        </mxCell>
        <mxCell id="KwsbSVUGnA-76USdKB4o-3" value="Vehicle" style="swimlane;fontStyle=1;align=center;verticalAlign=top;childLayout=stackLayout;horizontal=1;startSize=20;horizontalStack=0;resizeParent=1;resizeLast=0;collapsible=1;marginBottom=0;rounded=0;shadow=0;strokeWidth=1;strokeColor=default;" vertex="1" parent="1">
          <mxGeometry x="746" y="810" width="230" height="246" as="geometry">
            <mxRectangle x="230" y="140" width="160" height="26" as="alternateBounds" />
          </mxGeometry>
        </mxCell>
        <mxCell id="KwsbSVUGnA-76USdKB4o-4" value="-type: string" style="text;align=left;verticalAlign=top;spacingLeft=4;spacingRight=4;overflow=hidden;rotatable=0;points=[[0,0.5],[1,0.5]];portConstraint=eastwest;" vertex="1" parent="KwsbSVUGnA-76USdKB4o-3">
          <mxGeometry y="20" width="230" height="26" as="geometry" />
        </mxCell>
        <mxCell id="KwsbSVUGnA-76USdKB4o-5" value="-speed: float" style="text;align=left;verticalAlign=top;spacingLeft=4;spacingRight=4;overflow=hidden;rotatable=0;points=[[0,0.5],[1,0.5]];portConstraint=eastwest;rounded=0;shadow=0;html=0;" vertex="1" parent="KwsbSVUGnA-76USdKB4o-3">
          <mxGeometry y="46" width="230" height="26" as="geometry" />
        </mxCell>
        <mxCell id="KwsbSVUGnA-76USdKB4o-6" value="" style="line;html=1;strokeWidth=1;align=left;verticalAlign=middle;spacingTop=-1;spacingLeft=3;spacingRight=3;rotatable=0;labelPosition=right;points=[];portConstraint=eastwest;" vertex="1" parent="KwsbSVUGnA-76USdKB4o-3">
          <mxGeometry y="72" width="230" height="8" as="geometry" />
        </mxCell>
        <mxCell id="KwsbSVUGnA-76USdKB4o-7" value="+ToString(): string&#xa;" style="text;align=left;verticalAlign=top;spacingLeft=4;spacingRight=4;overflow=hidden;rotatable=0;points=[[0,0.5],[1,0.5]];portConstraint=eastwest;" vertex="1" parent="KwsbSVUGnA-76USdKB4o-3">
          <mxGeometry y="80" width="230" height="26" as="geometry" />
        </mxCell>
        <mxCell id="KwsbSVUGnA-76USdKB4o-8" value="+GetTypeOfVehicle(): string" style="text;align=left;verticalAlign=top;spacingLeft=4;spacingRight=4;overflow=hidden;rotatable=0;points=[[0,0.5],[1,0.5]];portConstraint=eastwest;" vertex="1" parent="KwsbSVUGnA-76USdKB4o-3">
          <mxGeometry y="106" width="230" height="28" as="geometry" />
        </mxCell>
        <mxCell id="KwsbSVUGnA-76USdKB4o-9" value="+GetPlate(): string" style="text;align=left;verticalAlign=top;spacingLeft=4;spacingRight=4;overflow=hidden;rotatable=0;points=[[0,0.5],[1,0.5]];portConstraint=eastwest;" vertex="1" parent="KwsbSVUGnA-76USdKB4o-3">
          <mxGeometry y="134" width="230" height="28" as="geometry" />
        </mxCell>
        <mxCell id="KwsbSVUGnA-76USdKB4o-10" value="+GetSpeed(): float" style="text;align=left;verticalAlign=top;spacingLeft=4;spacingRight=4;overflow=hidden;rotatable=0;points=[[0,0.5],[1,0.5]];portConstraint=eastwest;" vertex="1" parent="KwsbSVUGnA-76USdKB4o-3">
          <mxGeometry y="162" width="230" height="28" as="geometry" />
        </mxCell>
        <mxCell id="KwsbSVUGnA-76USdKB4o-11" value="+SetSpeed(speed: float): void" style="text;align=left;verticalAlign=top;spacingLeft=4;spacingRight=4;overflow=hidden;rotatable=0;points=[[0,0.5],[1,0.5]];portConstraint=eastwest;" vertex="1" parent="KwsbSVUGnA-76USdKB4o-3">
          <mxGeometry y="190" width="230" height="24" as="geometry" />
        </mxCell>
        <mxCell id="KwsbSVUGnA-76USdKB4o-12" value="+WriteMessage(message: string):string&#xa;" style="text;align=left;verticalAlign=top;spacingLeft=4;spacingRight=4;overflow=hidden;rotatable=0;points=[[0,0.5],[1,0.5]];portConstraint=eastwest;" vertex="1" parent="KwsbSVUGnA-76USdKB4o-3">
          <mxGeometry y="214" width="230" height="24" as="geometry" />
        </mxCell>
        <mxCell id="KwsbSVUGnA-76USdKB4o-13" style="edgeStyle=orthogonalEdgeStyle;rounded=0;orthogonalLoop=1;jettySize=auto;html=1;exitX=0.5;exitY=0;exitDx=0;exitDy=0;entryX=0;entryY=0.5;entryDx=0;entryDy=0;endArrow=diamond;endFill=1;endSize=20;" edge="1" parent="1" source="KwsbSVUGnA-76USdKB4o-14" target="KwsbSVUGnA-76USdKB4o-45">
          <mxGeometry relative="1" as="geometry">
            <Array as="points">
              <mxPoint x="706" y="1160" />
              <mxPoint x="706" y="617" />
            </Array>
          </mxGeometry>
        </mxCell>
        <mxCell id="KwsbSVUGnA-76USdKB4o-14" value="PoliceCar" style="swimlane;fontStyle=1;align=center;verticalAlign=top;childLayout=stackLayout;horizontal=1;startSize=26;horizontalStack=0;resizeParent=1;resizeParentMax=0;resizeLast=0;collapsible=1;marginBottom=0;whiteSpace=wrap;html=1;" vertex="1" parent="1">
          <mxGeometry x="749" y="1297" width="230" height="330" as="geometry" />
        </mxCell>
        <mxCell id="KwsbSVUGnA-76USdKB4o-15" value="-typeOfVehicle: string" style="text;strokeColor=none;fillColor=none;align=left;verticalAlign=top;spacingLeft=4;spacingRight=4;overflow=hidden;rotatable=0;points=[[0,0.5],[1,0.5]];portConstraint=eastwest;whiteSpace=wrap;html=1;fontStyle=4" vertex="1" parent="KwsbSVUGnA-76USdKB4o-14">
          <mxGeometry y="26" width="230" height="26" as="geometry" />
        </mxCell>
        <mxCell id="KwsbSVUGnA-76USdKB4o-16" value="-isPatrolling: bool" style="text;align=left;verticalAlign=top;spacingLeft=4;spacingRight=4;overflow=hidden;rotatable=0;points=[[0,0.5],[1,0.5]];portConstraint=eastwest;" vertex="1" parent="KwsbSVUGnA-76USdKB4o-14">
          <mxGeometry y="52" width="230" height="24" as="geometry" />
        </mxCell>
        <mxCell id="KwsbSVUGnA-76USdKB4o-17" value="-SpeedRadar: speedRadar" style="text;strokeColor=none;fillColor=none;align=left;verticalAlign=top;spacingLeft=4;spacingRight=4;overflow=hidden;rotatable=0;points=[[0,0.5],[1,0.5]];portConstraint=eastwest;whiteSpace=wrap;html=1;" vertex="1" parent="KwsbSVUGnA-76USdKB4o-14">
          <mxGeometry y="76" width="230" height="26" as="geometry" />
        </mxCell>
        <mxCell id="KwsbSVUGnA-76USdKB4o-18" value="&lt;span style=&quot;color: rgb(0, 0, 0); font-family: Helvetica; font-size: 12px; font-style: normal; font-variant-ligatures: normal; font-variant-caps: normal; font-weight: 400; letter-spacing: normal; orphans: 2; text-align: left; text-indent: 0px; text-transform: none; widows: 2; word-spacing: 0px; -webkit-text-stroke-width: 0px; white-space: normal; background-color: rgb(251, 251, 251); text-decoration-thickness: initial; text-decoration-style: initial; text-decoration-color: initial; display: inline !important; float: none;&quot;&gt;-isChasing: bool&lt;/span&gt;&lt;div&gt;&lt;span style=&quot;color: rgb(0, 0, 0); font-family: Helvetica; font-size: 12px; font-style: normal; font-variant-ligatures: normal; font-variant-caps: normal; font-weight: 400; letter-spacing: normal; orphans: 2; text-align: left; text-indent: 0px; text-transform: none; widows: 2; word-spacing: 0px; -webkit-text-stroke-width: 0px; white-space: normal; background-color: rgb(251, 251, 251); text-decoration-thickness: initial; text-decoration-style: initial; text-decoration-color: initial; display: inline !important; float: none;&quot;&gt;&lt;br&gt;&lt;/span&gt;&lt;/div&gt;&lt;div&gt;&lt;span style=&quot;color: rgb(0, 0, 0); font-family: Helvetica; font-size: 12px; font-style: normal; font-variant-ligatures: normal; font-variant-caps: normal; font-weight: 400; letter-spacing: normal; orphans: 2; text-align: left; text-indent: 0px; text-transform: none; widows: 2; word-spacing: 0px; -webkit-text-stroke-width: 0px; white-space: normal; background-color: rgb(251, 251, 251); text-decoration-thickness: initial; text-decoration-style: initial; text-decoration-color: initial; display: inline !important; float: none;&quot;&gt;-PoliceStation: policeStation&lt;/span&gt;&lt;/div&gt;" style="text;whiteSpace=wrap;html=1;" vertex="1" parent="KwsbSVUGnA-76USdKB4o-14">
          <mxGeometry y="102" width="230" height="58" as="geometry" />
        </mxCell>
        <mxCell id="KwsbSVUGnA-76USdKB4o-19" value="" style="line;strokeWidth=1;fillColor=none;align=left;verticalAlign=middle;spacingTop=-1;spacingLeft=3;spacingRight=3;rotatable=0;labelPosition=right;points=[];portConstraint=eastwest;strokeColor=inherit;" vertex="1" parent="KwsbSVUGnA-76USdKB4o-14">
          <mxGeometry y="160" width="230" height="8" as="geometry" />
        </mxCell>
        <mxCell id="KwsbSVUGnA-76USdKB4o-20" value="+UseRadar(Vehicle vehicle): void" style="text;strokeColor=none;fillColor=none;align=left;verticalAlign=top;spacingLeft=4;spacingRight=4;overflow=hidden;rotatable=0;points=[[0,0.5],[1,0.5]];portConstraint=eastwest;whiteSpace=wrap;html=1;" vertex="1" parent="KwsbSVUGnA-76USdKB4o-14">
          <mxGeometry y="168" width="230" height="26" as="geometry" />
        </mxCell>
        <mxCell id="KwsbSVUGnA-76USdKB4o-21" value="+IsPatrolling():bool" style="text;align=left;verticalAlign=top;spacingLeft=4;spacingRight=4;overflow=hidden;rotatable=0;points=[[0,0.5],[1,0.5]];portConstraint=eastwest;" vertex="1" parent="KwsbSVUGnA-76USdKB4o-14">
          <mxGeometry y="194" width="230" height="24" as="geometry" />
        </mxCell>
        <mxCell id="KwsbSVUGnA-76USdKB4o-22" value="+EndPatrolling(): void" style="text;align=left;verticalAlign=top;spacingLeft=4;spacingRight=4;overflow=hidden;rotatable=0;points=[[0,0.5],[1,0.5]];portConstraint=eastwest;" vertex="1" parent="KwsbSVUGnA-76USdKB4o-14">
          <mxGeometry y="218" width="230" height="24" as="geometry" />
        </mxCell>
        <mxCell id="KwsbSVUGnA-76USdKB4o-23" value="+PrintRadarHistory(): void&#xa;&#xa;+NotifyInfractor(plate: string): void&#xa;&#xa;+StartPatrolling(): void" style="text;align=left;verticalAlign=top;spacingLeft=4;spacingRight=4;overflow=hidden;rotatable=0;points=[[0,0.5],[1,0.5]];portConstraint=eastwest;" vertex="1" parent="KwsbSVUGnA-76USdKB4o-14">
          <mxGeometry y="242" width="230" height="88" as="geometry" />
        </mxCell>
        <mxCell id="KwsbSVUGnA-76USdKB4o-24" style="edgeStyle=orthogonalEdgeStyle;rounded=0;orthogonalLoop=1;jettySize=auto;html=1;entryX=0;entryY=0.5;entryDx=0;entryDy=0;endArrow=diamond;endFill=1;strokeWidth=1;endSize=20;" edge="1" parent="1" source="KwsbSVUGnA-76USdKB4o-25" target="KwsbSVUGnA-76USdKB4o-47">
          <mxGeometry relative="1" as="geometry" />
        </mxCell>
        <mxCell id="KwsbSVUGnA-76USdKB4o-25" value="Taxi" style="swimlane;fontStyle=1;align=center;verticalAlign=top;childLayout=stackLayout;horizontal=1;startSize=26;horizontalStack=0;resizeParent=1;resizeParentMax=0;resizeLast=0;collapsible=1;marginBottom=0;whiteSpace=wrap;html=1;" vertex="1" parent="1">
          <mxGeometry x="480" y="1300" width="230" height="140" as="geometry" />
        </mxCell>
        <mxCell id="KwsbSVUGnA-76USdKB4o-26" value="-typeOfVehicle: string&lt;div&gt;&lt;br&gt;&lt;/div&gt;" style="text;strokeColor=none;fillColor=none;align=left;verticalAlign=top;spacingLeft=4;spacingRight=4;overflow=hidden;rotatable=0;points=[[0,0.5],[1,0.5]];portConstraint=eastwest;whiteSpace=wrap;html=1;fontStyle=4" vertex="1" parent="KwsbSVUGnA-76USdKB4o-25">
          <mxGeometry y="26" width="230" height="24" as="geometry" />
        </mxCell>
        <mxCell id="KwsbSVUGnA-76USdKB4o-27" value="-isCarryingPassengers: bool" style="text;align=left;verticalAlign=top;spacingLeft=4;spacingRight=4;overflow=hidden;rotatable=0;points=[[0,0.5],[1,0.5]];portConstraint=eastwest;" vertex="1" parent="KwsbSVUGnA-76USdKB4o-25">
          <mxGeometry y="50" width="230" height="24" as="geometry" />
        </mxCell>
        <mxCell id="KwsbSVUGnA-76USdKB4o-28" value="" style="line;strokeWidth=1;fillColor=none;align=left;verticalAlign=middle;spacingTop=-1;spacingLeft=3;spacingRight=3;rotatable=0;labelPosition=right;points=[];portConstraint=eastwest;strokeColor=inherit;" vertex="1" parent="KwsbSVUGnA-76USdKB4o-25">
          <mxGeometry y="74" width="230" height="8" as="geometry" />
        </mxCell>
        <mxCell id="KwsbSVUGnA-76USdKB4o-29" value="+StartRide(): void&lt;span style=&quot;color: rgba(0, 0, 0, 0); font-family: monospace; font-size: 0px; text-wrap: nowrap;&quot;&gt;%3CmxGraphModel%3E%3Croot%3E%3CmxCell%20id%3D%220%22%2F%3E%3CmxCell%20id%3D%221%22%20parent%3D%220%22%2F%3E%3CmxCell%20id%3D%222%22%20value%3D%22%2BSetSpeed(speed%3A%20float)%3A%20void%22%20style%3D%22text%3Balign%3Dleft%3BverticalAlign%3Dtop%3BspacingLeft%3D4%3BspacingRight%3D4%3Boverflow%3Dhidden%3Brotatable%3D0%3Bpoints%3D%5B%5B0%2C0.5%5D%2C%5B1%2C0.5%5D%5D%3BportConstraint%3Deastwest%3B%22%20vertex%3D%221%22%20parent%3D%221%22%3E%3CmxGeometry%20x%3D%22220%22%20y%3D%22316%22%20width%3D%22160%22%20height%3D%2224%22%20as%3D%22geometry%22%2F%3E%3C%2FmxCell%3E%3C%2Froot%3E%3C%2FmxGraphModel%3E&lt;/span&gt;" style="text;strokeColor=none;fillColor=none;align=left;verticalAlign=top;spacingLeft=4;spacingRight=4;overflow=hidden;rotatable=0;points=[[0,0.5],[1,0.5]];portConstraint=eastwest;whiteSpace=wrap;html=1;" vertex="1" parent="KwsbSVUGnA-76USdKB4o-25">
          <mxGeometry y="82" width="230" height="30" as="geometry" />
        </mxCell>
        <mxCell id="KwsbSVUGnA-76USdKB4o-30" value="+StopRide(): void" style="text;strokeColor=none;fillColor=none;align=left;verticalAlign=top;spacingLeft=4;spacingRight=4;overflow=hidden;rotatable=0;points=[[0,0.5],[1,0.5]];portConstraint=eastwest;whiteSpace=wrap;html=1;" vertex="1" parent="KwsbSVUGnA-76USdKB4o-25">
          <mxGeometry y="112" width="230" height="28" as="geometry" />
        </mxCell>
        <mxCell id="KwsbSVUGnA-76USdKB4o-31" style="rounded=0;orthogonalLoop=1;jettySize=auto;html=1;exitX=0.5;exitY=0;exitDx=0;exitDy=0;entryX=0;entryY=0.5;entryDx=0;entryDy=0;edgeStyle=orthogonalEdgeStyle;dashed=1;endArrow=block;endFill=0;strokeWidth=1;endSize=20;" edge="1" parent="1">
          <mxGeometry relative="1" as="geometry">
            <mxPoint x="1640.73" y="1124.9999999999998" as="sourcePoint" />
            <mxPoint x="1780.73" y="910" as="targetPoint" />
          </mxGeometry>
        </mxCell>
        <mxCell id="KwsbSVUGnA-76USdKB4o-32" value="SpeedRadar" style="swimlane;fontStyle=1;align=center;verticalAlign=top;childLayout=stackLayout;horizontal=1;startSize=26;horizontalStack=0;resizeParent=1;resizeParentMax=0;resizeLast=0;collapsible=1;marginBottom=0;whiteSpace=wrap;html=1;" vertex="1" parent="1">
          <mxGeometry x="1396" y="950" width="240" height="240" as="geometry" />
        </mxCell>
        <mxCell id="KwsbSVUGnA-76USdKB4o-33" value="-plate: string&lt;div&gt;&lt;br&gt;&lt;/div&gt;" style="text;strokeColor=none;fillColor=none;align=left;verticalAlign=top;spacingLeft=4;spacingRight=4;overflow=hidden;rotatable=0;points=[[0,0.5],[1,0.5]];portConstraint=eastwest;whiteSpace=wrap;html=1;" vertex="1" parent="KwsbSVUGnA-76USdKB4o-32">
          <mxGeometry y="26" width="240" height="24" as="geometry" />
        </mxCell>
        <mxCell id="KwsbSVUGnA-76USdKB4o-34" value="-speed:float" style="text;align=left;verticalAlign=top;spacingLeft=4;spacingRight=4;overflow=hidden;rotatable=0;points=[[0,0.5],[1,0.5]];portConstraint=eastwest;" vertex="1" parent="KwsbSVUGnA-76USdKB4o-32">
          <mxGeometry y="50" width="240" height="30" as="geometry" />
        </mxCell>
        <mxCell id="KwsbSVUGnA-76USdKB4o-35" value="-legalSpeed:float" style="text;align=left;verticalAlign=top;spacingLeft=4;spacingRight=4;overflow=hidden;rotatable=0;points=[[0,0.5],[1,0.5]];portConstraint=eastwest;" vertex="1" parent="KwsbSVUGnA-76USdKB4o-32">
          <mxGeometry y="80" width="240" height="30" as="geometry" />
        </mxCell>
        <mxCell id="KwsbSVUGnA-76USdKB4o-36" value="+SpeedHistory: list&lt;float&gt;" style="text;align=left;verticalAlign=top;spacingLeft=4;spacingRight=4;overflow=hidden;rotatable=0;points=[[0,0.5],[1,0.5]];portConstraint=eastwest;" vertex="1" parent="KwsbSVUGnA-76USdKB4o-32">
          <mxGeometry y="110" width="240" height="30" as="geometry" />
        </mxCell>
        <mxCell id="KwsbSVUGnA-76USdKB4o-37" value="" style="line;strokeWidth=1;fillColor=none;align=left;verticalAlign=middle;spacingTop=-1;spacingLeft=3;spacingRight=3;rotatable=0;labelPosition=right;points=[];portConstraint=eastwest;strokeColor=inherit;" vertex="1" parent="KwsbSVUGnA-76USdKB4o-32">
          <mxGeometry y="140" width="240" height="10" as="geometry" />
        </mxCell>
        <mxCell id="KwsbSVUGnA-76USdKB4o-38" value="+TriggerRadar(vehicle: Vehicle): void" style="text;align=left;verticalAlign=top;spacingLeft=4;spacingRight=4;overflow=hidden;rotatable=0;points=[[0,0.5],[1,0.5]];portConstraint=eastwest;" vertex="1" parent="KwsbSVUGnA-76USdKB4o-32">
          <mxGeometry y="150" width="240" height="30" as="geometry" />
        </mxCell>
        <mxCell id="KwsbSVUGnA-76USdKB4o-39" value="+GetLastReading():string" style="text;align=left;verticalAlign=top;spacingLeft=4;spacingRight=4;overflow=hidden;rotatable=0;points=[[0,0.5],[1,0.5]];portConstraint=eastwest;" vertex="1" parent="KwsbSVUGnA-76USdKB4o-32">
          <mxGeometry y="180" width="240" height="30" as="geometry" />
        </mxCell>
        <mxCell id="KwsbSVUGnA-76USdKB4o-40" value="+WriteMessage(radarRading:string):string" style="text;align=left;verticalAlign=top;spacingLeft=4;spacingRight=4;overflow=hidden;rotatable=0;points=[[0,0.5],[1,0.5]];portConstraint=eastwest;" vertex="1" parent="KwsbSVUGnA-76USdKB4o-32">
          <mxGeometry y="210" width="240" height="30" as="geometry" />
        </mxCell>
        <mxCell id="KwsbSVUGnA-76USdKB4o-41" value="PoliceStation" style="swimlane;fontStyle=1;align=center;verticalAlign=top;childLayout=stackLayout;horizontal=1;startSize=26;horizontalStack=0;resizeParent=1;resizeParentMax=0;resizeLast=0;collapsible=1;marginBottom=0;whiteSpace=wrap;html=1;" vertex="1" parent="1">
          <mxGeometry x="806" y="482" width="240" height="150" as="geometry" />
        </mxCell>
        <mxCell id="KwsbSVUGnA-76USdKB4o-42" value="+policeCars: list&lt;PoliceCar&gt;&#xa;&#xa;-detectedInfractor: bool" style="text;align=left;verticalAlign=top;spacingLeft=4;spacingRight=4;overflow=hidden;rotatable=0;points=[[0,0.5],[1,0.5]];portConstraint=eastwest;" vertex="1" parent="KwsbSVUGnA-76USdKB4o-41">
          <mxGeometry y="26" width="240" height="54" as="geometry" />
        </mxCell>
        <mxCell id="KwsbSVUGnA-76USdKB4o-43" value="" style="line;strokeWidth=1;fillColor=none;align=left;verticalAlign=middle;spacingTop=-1;spacingLeft=3;spacingRight=3;rotatable=0;labelPosition=right;points=[];portConstraint=eastwest;strokeColor=inherit;" vertex="1" parent="KwsbSVUGnA-76USdKB4o-41">
          <mxGeometry y="80" width="240" height="10" as="geometry" />
        </mxCell>
        <mxCell id="KwsbSVUGnA-76USdKB4o-44" value="+RegisterPlate(plate: string): void&#xa;&#xa;&#xa;&#xa;&#xa;&#xa;&#xa;&#xa;&#xa;&#xa;&#xa;" style="text;align=left;verticalAlign=top;spacingLeft=4;spacingRight=4;overflow=hidden;rotatable=0;points=[[0,0.5],[1,0.5]];portConstraint=eastwest;" vertex="1" parent="KwsbSVUGnA-76USdKB4o-41">
          <mxGeometry y="90" width="240" height="30" as="geometry" />
        </mxCell>
        <mxCell id="KwsbSVUGnA-76USdKB4o-45" value="+AlertPoliceCars(plate: string): void&#xa;" style="text;align=left;verticalAlign=top;spacingLeft=4;spacingRight=4;overflow=hidden;rotatable=0;points=[[0,0.5],[1,0.5]];portConstraint=eastwest;" vertex="1" parent="KwsbSVUGnA-76USdKB4o-41">
          <mxGeometry y="120" width="240" height="30" as="geometry" />
        </mxCell>
        <mxCell id="KwsbSVUGnA-76USdKB4o-46" value="City" style="swimlane;fontStyle=1;align=center;verticalAlign=top;childLayout=stackLayout;horizontal=1;startSize=26;horizontalStack=0;resizeParent=1;resizeParentMax=0;resizeLast=0;collapsible=1;marginBottom=0;whiteSpace=wrap;html=1;" vertex="1" parent="1">
          <mxGeometry x="1157" y="370" width="180" height="138" as="geometry" />
        </mxCell>
        <mxCell id="KwsbSVUGnA-76USdKB4o-47" value="-policeStation: PoliceStation&lt;div&gt;&lt;br&gt;&lt;/div&gt;&lt;div&gt;&lt;br&gt;&lt;/div&gt;" style="text;strokeColor=none;fillColor=none;align=left;verticalAlign=top;spacingLeft=4;spacingRight=4;overflow=hidden;rotatable=0;points=[[0,0.5],[1,0.5]];portConstraint=eastwest;whiteSpace=wrap;html=1;" vertex="1" parent="KwsbSVUGnA-76USdKB4o-46">
          <mxGeometry y="26" width="180" height="26" as="geometry" />
        </mxCell>
        <mxCell id="KwsbSVUGnA-76USdKB4o-48" value="+taxiLicenses: list&amp;lt;Taxi&amp;gt;&lt;div&gt;&lt;br&gt;&lt;div&gt;&lt;br&gt;&lt;/div&gt;&lt;div&gt;&lt;br&gt;&lt;/div&gt;&lt;/div&gt;" style="text;strokeColor=none;fillColor=none;align=left;verticalAlign=top;spacingLeft=4;spacingRight=4;overflow=hidden;rotatable=0;points=[[0,0.5],[1,0.5]];portConstraint=eastwest;whiteSpace=wrap;html=1;" vertex="1" parent="KwsbSVUGnA-76USdKB4o-46">
          <mxGeometry y="52" width="180" height="26" as="geometry" />
        </mxCell>
        <mxCell id="KwsbSVUGnA-76USdKB4o-49" value="" style="line;strokeWidth=1;fillColor=none;align=left;verticalAlign=middle;spacingTop=-1;spacingLeft=3;spacingRight=3;rotatable=0;labelPosition=right;points=[];portConstraint=eastwest;strokeColor=inherit;" vertex="1" parent="KwsbSVUGnA-76USdKB4o-46">
          <mxGeometry y="78" width="180" height="8" as="geometry" />
        </mxCell>
        <mxCell id="KwsbSVUGnA-76USdKB4o-50" value="+ registerTaxi(plate:str): void&lt;div&gt;&lt;br&gt;&lt;/div&gt;" style="text;strokeColor=none;fillColor=none;align=left;verticalAlign=top;spacingLeft=4;spacingRight=4;overflow=hidden;rotatable=0;points=[[0,0.5],[1,0.5]];portConstraint=eastwest;whiteSpace=wrap;html=1;" vertex="1" parent="KwsbSVUGnA-76USdKB4o-46">
          <mxGeometry y="86" width="180" height="26" as="geometry" />
        </mxCell>
        <mxCell id="KwsbSVUGnA-76USdKB4o-51" value="+ deleteTaxi(plate:str): void&lt;div&gt;&lt;br&gt;&lt;/div&gt;" style="text;strokeColor=none;fillColor=none;align=left;verticalAlign=top;spacingLeft=4;spacingRight=4;overflow=hidden;rotatable=0;points=[[0,0.5],[1,0.5]];portConstraint=eastwest;whiteSpace=wrap;html=1;" vertex="1" parent="KwsbSVUGnA-76USdKB4o-46">
          <mxGeometry y="112" width="180" height="26" as="geometry" />
        </mxCell>
        <mxCell id="KwsbSVUGnA-76USdKB4o-52" style="edgeStyle=orthogonalEdgeStyle;rounded=0;orthogonalLoop=1;jettySize=auto;html=1;endArrow=diamond;endFill=1;endSize=20;" edge="1" parent="1" source="KwsbSVUGnA-76USdKB4o-42" target="KwsbSVUGnA-76USdKB4o-50">
          <mxGeometry relative="1" as="geometry" />
        </mxCell>
        <mxCell id="KwsbSVUGnA-76USdKB4o-53" value="1" style="text;html=1;align=center;verticalAlign=middle;resizable=0;points=[];autosize=1;strokeColor=none;fillColor=none;" vertex="1" parent="1">
          <mxGeometry x="1115" y="483" width="30" height="30" as="geometry" />
        </mxCell>
        <mxCell id="KwsbSVUGnA-76USdKB4o-54" value="1..*" style="text;html=1;align=center;verticalAlign=middle;resizable=0;points=[];autosize=1;strokeColor=none;fillColor=none;" vertex="1" parent="1">
          <mxGeometry x="1046" y="508" width="40" height="30" as="geometry" />
        </mxCell>
        <mxCell id="KwsbSVUGnA-76USdKB4o-55" value="1" style="text;html=1;align=center;verticalAlign=middle;resizable=0;points=[];autosize=1;strokeColor=none;fillColor=none;" vertex="1" parent="1">
          <mxGeometry x="755" y="576" width="30" height="30" as="geometry" />
        </mxCell>
        <mxCell id="KwsbSVUGnA-76USdKB4o-56" value="0..*" style="text;html=1;align=center;verticalAlign=middle;resizable=0;points=[];autosize=1;strokeColor=none;fillColor=none;" vertex="1" parent="1">
          <mxGeometry x="876" y="1268" width="36" height="26" as="geometry" />
        </mxCell>
        <mxCell id="KwsbSVUGnA-76USdKB4o-57" value="&lt;p style=&quot;margin:0px;margin-top:4px;text-align:center;&quot;&gt;&lt;i&gt;&amp;lt;&amp;lt;Interface&amp;gt;&amp;gt;&lt;/i&gt;&lt;br&gt;&lt;b&gt;IMessageWriter&lt;/b&gt;&lt;/p&gt;&lt;hr size=&quot;1&quot; style=&quot;border-style:solid;&quot;&gt;&lt;p style=&quot;margin:0px;margin-left:4px;&quot;&gt;&lt;br&gt;&lt;/p&gt;&lt;hr size=&quot;1&quot; style=&quot;border-style:solid;&quot;&gt;&lt;p style=&quot;margin:0px;margin-left:4px;&quot;&gt;+ IMessageWriter(customMessage:sting): interface&lt;/p&gt;" style="verticalAlign=top;align=left;overflow=fill;html=1;whiteSpace=wrap;" vertex="1" parent="1">
          <mxGeometry x="1636" y="770" width="280" height="140" as="geometry" />
        </mxCell>
        <mxCell id="KwsbSVUGnA-76USdKB4o-58" value="&amp;lt;use&amp;gt;" style="text;html=1;align=center;verticalAlign=middle;resizable=0;points=[];autosize=1;strokeColor=none;fillColor=none;" vertex="1" parent="1">
          <mxGeometry x="1294" y="1320" width="51" height="26" as="geometry" />
        </mxCell>
        <mxCell id="KwsbSVUGnA-76USdKB4o-59" value="Scooter" style="swimlane;fontStyle=1;align=center;verticalAlign=top;childLayout=stackLayout;horizontal=1;startSize=26;horizontalStack=0;resizeParent=1;resizeParentMax=0;resizeLast=0;collapsible=1;marginBottom=0;whiteSpace=wrap;html=1;" vertex="1" parent="1">
          <mxGeometry x="1448" y="569" width="230" height="51" as="geometry" />
        </mxCell>
        <mxCell id="KwsbSVUGnA-76USdKB4o-60" style="edgeStyle=orthogonalEdgeStyle;rounded=0;orthogonalLoop=1;jettySize=auto;html=1;endSize=20;endArrow=blockThin;endFill=0;" edge="1" parent="1" source="KwsbSVUGnA-76USdKB4o-61" target="KwsbSVUGnA-76USdKB4o-20">
          <mxGeometry relative="1" as="geometry">
            <Array as="points">
              <mxPoint x="1158" y="1478" />
            </Array>
          </mxGeometry>
        </mxCell>
        <mxCell id="KwsbSVUGnA-76USdKB4o-61" value="VehicleWithPlate" style="swimlane;fontStyle=1;align=center;verticalAlign=top;childLayout=stackLayout;horizontal=1;startSize=26;horizontalStack=0;resizeParent=1;resizeParentMax=0;resizeLast=0;collapsible=1;marginBottom=0;whiteSpace=wrap;html=1;" vertex="1" parent="1">
          <mxGeometry x="1090" y="1009" width="230" height="56" as="geometry" />
        </mxCell>
        <mxCell id="KwsbSVUGnA-76USdKB4o-62" value="- plate: string" style="text;html=1;align=left;verticalAlign=middle;resizable=0;points=[];autosize=1;strokeColor=none;fillColor=none;" vertex="1" parent="KwsbSVUGnA-76USdKB4o-61">
          <mxGeometry y="26" width="230" height="30" as="geometry" />
        </mxCell>
        <mxCell id="KwsbSVUGnA-76USdKB4o-63" value="0..*" style="text;html=1;align=center;verticalAlign=middle;resizable=0;points=[];autosize=1;strokeColor=none;fillColor=none;" vertex="1" parent="1">
          <mxGeometry x="544" y="1264" width="36" height="26" as="geometry" />
        </mxCell>
        <mxCell id="KwsbSVUGnA-76USdKB4o-64" style="edgeStyle=orthogonalEdgeStyle;rounded=0;orthogonalLoop=1;jettySize=auto;html=1;entryX=0.5;entryY=1;entryDx=0;entryDy=0;strokeWidth=1;endArrow=blockThin;endFill=0;endSize=20;" edge="1" parent="1" source="KwsbSVUGnA-76USdKB4o-67" target="KwsbSVUGnA-76USdKB4o-59">
          <mxGeometry relative="1" as="geometry" />
        </mxCell>
        <mxCell id="KwsbSVUGnA-76USdKB4o-65" value="1" style="text;html=1;align=center;verticalAlign=middle;resizable=0;points=[];autosize=1;strokeColor=none;fillColor=none;" vertex="1" parent="1">
          <mxGeometry x="1116" y="372" width="25" height="26" as="geometry" />
        </mxCell>
        <mxCell id="KwsbSVUGnA-76USdKB4o-66" style="edgeStyle=orthogonalEdgeStyle;rounded=0;orthogonalLoop=1;jettySize=auto;html=1;entryX=1.015;entryY=0.916;entryDx=0;entryDy=0;entryPerimeter=0;dashed=1;endSize=20;endArrow=openThin;endFill=0;" edge="1" parent="1" source="KwsbSVUGnA-76USdKB4o-32" target="KwsbSVUGnA-76USdKB4o-15">
          <mxGeometry relative="1" as="geometry" />
        </mxCell>
        <mxCell id="KwsbSVUGnA-76USdKB4o-67" value="VehicleWithoutPlate" style="swimlane;fontStyle=1;align=center;verticalAlign=top;childLayout=stackLayout;horizontal=1;startSize=26;horizontalStack=0;resizeParent=1;resizeParentMax=0;resizeLast=0;collapsible=1;marginBottom=0;whiteSpace=wrap;html=1;" vertex="1" parent="1">
          <mxGeometry x="1191" y="813" width="230" height="47" as="geometry" />
        </mxCell>
        <mxCell id="KwsbSVUGnA-76USdKB4o-68" style="edgeStyle=orthogonalEdgeStyle;rounded=0;orthogonalLoop=1;jettySize=auto;html=1;entryX=-0.018;entryY=0.118;entryDx=0;entryDy=0;entryPerimeter=0;endSize=20;endArrow=blockThin;endFill=0;" edge="1" parent="1" source="KwsbSVUGnA-76USdKB4o-11" target="KwsbSVUGnA-76USdKB4o-62">
          <mxGeometry relative="1" as="geometry">
            <Array as="points">
              <mxPoint x="1056" y="1012" />
              <mxPoint x="1056" y="1039" />
            </Array>
          </mxGeometry>
        </mxCell>
        <mxCell id="KwsbSVUGnA-76USdKB4o-69" style="edgeStyle=orthogonalEdgeStyle;rounded=0;orthogonalLoop=1;jettySize=auto;html=1;entryX=0;entryY=0.5;entryDx=0;entryDy=0;endSize=16;endArrow=blockThin;endFill=0;" edge="1" parent="1">
          <mxGeometry relative="1" as="geometry">
            <mxPoint x="1206" y="1065" as="sourcePoint" />
            <mxPoint x="481" y="1397" as="targetPoint" />
            <Array as="points">
              <mxPoint x="1206" y="1660" />
              <mxPoint x="439" y="1660" />
              <mxPoint x="439" y="1397" />
            </Array>
          </mxGeometry>
        </mxCell>
        <mxCell id="KwsbSVUGnA-76USdKB4o-70" style="edgeStyle=orthogonalEdgeStyle;rounded=0;orthogonalLoop=1;jettySize=auto;html=1;entryX=0.876;entryY=0.017;entryDx=0;entryDy=0;entryPerimeter=0;dashed=1;endArrow=block;endFill=0;endSize=20;" edge="1" parent="1">
          <mxGeometry relative="1" as="geometry">
            <mxPoint x="1339" y="433" as="sourcePoint" />
            <mxPoint x="1883.2799999999997" y="770.34" as="targetPoint" />
          </mxGeometry>
        </mxCell>
        <mxCell id="KwsbSVUGnA-76USdKB4o-71" style="edgeStyle=orthogonalEdgeStyle;rounded=0;orthogonalLoop=1;jettySize=auto;html=1;entryX=0.75;entryY=0;entryDx=0;entryDy=0;endArrow=block;endFill=0;endSize=20;dashed=1;" edge="1" parent="1" target="KwsbSVUGnA-76USdKB4o-57">
          <mxGeometry relative="1" as="geometry">
            <mxPoint x="1047" y="554" as="sourcePoint" />
            <mxPoint x="1847" y="737" as="targetPoint" />
          </mxGeometry>
        </mxCell>
      </root>
    </mxGraphModel>
  </diagram>
</mxfile>
